# xmcd
#
# Track frame offsets:
#	182
#	9155
#	16717
#	29410
#	38855
#	51157
#	56620
#	68405
#	80270
#	91032
#	102862
#	117985
#	124350
#	135097
#	141900
#	154892
#
# Disc length: 2205 seconds
#
# Revision: 0
# Processed by: cddbd v1.5PL3 Copyright (c) Steve Scherf et al.
# Submitted via: MusicWizard 7.0.2
#
DISCID=bf089b10
DTITLE=Various Artist - Golden Country Favourites (Doppel CD) [CD 2/2)
DYEAR=1990
DGENRE=Instrumental
TTITLE0=Orchester James Garner - O Susanna
TTITLE1=Orchester James Garner - The Yellow Rose Of Texas
TTITLE2=Orchester James Garner - Down in the Valley
TTITLE3=Orchester James Garner - Cripple Creak
TTITLE4=Orchester James Garner - Tarried Song
TTITLE5=Orchester James Garner - Wildwood Flower
TTITLE6=Orchester James Garner - Clementime
TTITLE7=Orchester James Garner - She's My Dream
TTITLE8=Orchester James Garner - O Freedom
TTITLE9=Orchester James Garner - Worried Man
TTITLE10=Orchester James Garner - On Top Of Old Smoky
TTITLE11=Orchester James Garner - Flop Eared Mule
TTITLE12=Orchester James Garner - Beans, Bacon And Gravy
TTITLE13=Orchester James Garner - Dickson
TTITLE14=Orchester James Garner - Wandering
TTITLE15=Orchester James Garner - Red River Valley
EXTD=ID3G: 33
EXTT0=
EXTT1=
EXTT2=
EXTT3=
EXTT4=
EXTT5=
EXTT6=
EXTT7=
EXTT8=
EXTT9=
EXTT10=
EXTT11=
EXTT12=
EXTT13=
EXTT14=
EXTT15=
PLAYORDER=
